optRun
version=1
nRows=30
nColumns=21
inDegrees=no
endheader
time	r_shoulder_elev	r_elbow_flex	r_shoulder_elev_u	r_elbow_flex_u	TRIlong.activation	TRIlong.fiber_length	TRIlat.activation	TRIlat.fiber_length	TRImed.activation	TRImed.fiber_length	BIClong.activation	BIClong.fiber_length	BICshort.activation	BICshort.fiber_length	BRA.activation	BRA.fiber_length	DeltAnt.activation	DeltAnt.fiber_length	DeltPost.activation	DeltPost.fiber_length
        1.656151	        0.857059	       -0.405681	       -0.655370	        0.114020	        0.488843	        0.160188	        0.478980	        0.065582	        0.519031	        0.060756	        0.706050	        0.127949	        0.354949	        0.158991	        0.178470	        0.083629	        0.161150	        0.129920	        0.505305	        0.142181
        1.657127	        0.856419	       -0.405570	       -0.657391	        0.113375	        0.488912	        0.160169	        0.479543	        0.065580	        0.519471	        0.060755	        0.705728	        0.127958	        0.355073	        0.158972	        0.178566	        0.083630	        0.160975	        0.129944	        0.505650	        0.142155
        1.658103	        0.855776	       -0.405460	       -0.659505	        0.112906	        0.488981	        0.160150	        0.480106	        0.065579	        0.519910	        0.060754	        0.705406	        0.127968	        0.355197	        0.158953	        0.178662	        0.083631	        0.160800	        0.129968	        0.505995	        0.142129
        1.661335	        0.853631	       -0.405094	       -0.667485	        0.113256	        0.489207	        0.160087	        0.481974	        0.065574	        0.521367	        0.060750	        0.704333	        0.128001	        0.355609	        0.158890	        0.178980	        0.083634	        0.160216	        0.130049	        0.507139	        0.142043
        1.663952	        0.851876	       -0.404797	       -0.674205	        0.113952	        0.489389	        0.160035	        0.483489	        0.065570	        0.522547	        0.060747	        0.703458	        0.128029	        0.355942	        0.158839	        0.179238	        0.083636	        0.159742	        0.130116	        0.508066	        0.141973
        1.665283	        0.850976	       -0.404645	       -0.677640	        0.114295	        0.489480	        0.160009	        0.484261	        0.065568	        0.523149	        0.060745	        0.703010	        0.128042	        0.356111	        0.158813	        0.179370	        0.083638	        0.159499	        0.130150	        0.508538	        0.141937
        1.666338	        0.850260	       -0.404525	       -0.679965	        0.113738	        0.489553	        0.159988	        0.484874	        0.065566	        0.523625	        0.060744	        0.702654	        0.128053	        0.356245	        0.158792	        0.179474	        0.083639	        0.159307	        0.130177	        0.508912	        0.141908
        1.667393	        0.849541	       -0.404405	       -0.682350	        0.113287	        0.489625	        0.159967	        0.485486	        0.065565	        0.524102	        0.060742	        0.702298	        0.128065	        0.356379	        0.158771	        0.179578	        0.083640	        0.159114	        0.130204	        0.509286	        0.141880
        1.670047	        0.847721	       -0.404104	       -0.689073	        0.113554	        0.489805	        0.159913	        0.487029	        0.065561	        0.525303	        0.060739	        0.701396	        0.128093	        0.356716	        0.158718	        0.179840	        0.083642	        0.158628	        0.130273	        0.510228	        0.141807
        1.672702	        0.845883	       -0.403801	       -0.696111	        0.114352	        0.489983	        0.159859	        0.488575	        0.065557	        0.526505	        0.060736	        0.700488	        0.128121	        0.357053	        0.158664	        0.180102	        0.083645	        0.158140	        0.130342	        0.511172	        0.141733
        1.673950	        0.845012	       -0.403658	       -0.699431	        0.114709	        0.490067	        0.159833	        0.489302	        0.065555	        0.527071	        0.060734	        0.700060	        0.128135	        0.357212	        0.158639	        0.180225	        0.083646	        0.157910	        0.130375	        0.511616	        0.141699
        1.675198	        0.844137	       -0.403515	       -0.702390	        0.114303	        0.490149	        0.159808	        0.490031	        0.065553	        0.527637	        0.060732	        0.699630	        0.128148	        0.357370	        0.158614	        0.180349	        0.083648	        0.157679	        0.130408	        0.512060	        0.141664
        1.676626	        0.843132	       -0.403352	       -0.705742	        0.113739	        0.490244	        0.159778	        0.490865	        0.065551	        0.528285	        0.060731	        0.699136	        0.128164	        0.357551	        0.158584	        0.180490	        0.083649	        0.157414	        0.130446	        0.512568	        0.141623
        1.679931	        0.840785	       -0.402976	       -0.714434	        0.114218	        0.490461	        0.159709	        0.492798	        0.065546	        0.529787	        0.060727	        0.697986	        0.128200	        0.357970	        0.158516	        0.180817	        0.083652	        0.156800	        0.130535	        0.513746	        0.141530
        1.682795	        0.838727	       -0.402647	       -0.722189	        0.114940	        0.490647	        0.159648	        0.494477	        0.065541	        0.531090	        0.060723	        0.696983	        0.128232	        0.358333	        0.158456	        0.181101	        0.083655	        0.156264	        0.130613	        0.514768	        0.141448
        1.683749	        0.838038	       -0.402538	       -0.724461	        0.114518	        0.490708	        0.159628	        0.495037	        0.065540	        0.531524	        0.060722	        0.696647	        0.128243	        0.358454	        0.158436	        0.181195	        0.083656	        0.156086	        0.130639	        0.515108	        0.141420
        1.684702	        0.837346	       -0.402429	       -0.726782	        0.114183	        0.490769	        0.159607	        0.495597	        0.065539	        0.531958	        0.060721	        0.696311	        0.128254	        0.358575	        0.158416	        0.181290	        0.083657	        0.155907	        0.130665	        0.515449	        0.141393
        1.687410	        0.835368	       -0.402119	       -0.734052	        0.114527	        0.490942	        0.159549	        0.497189	        0.065535	        0.533193	        0.060717	        0.695351	        0.128285	        0.358918	        0.158359	        0.181558	        0.083660	        0.155397	        0.130740	        0.516417	        0.141314
        1.690119	        0.833369	       -0.401807	       -0.741621	        0.115356	        0.491113	        0.159490	        0.498784	        0.065531	        0.534429	        0.060714	        0.694385	        0.128316	        0.359260	        0.158301	        0.181827	        0.083663	        0.154885	        0.130816	        0.517386	        0.141235
        1.691580	        0.832283	       -0.401639	       -0.745498	        0.115328	        0.491204	        0.159457	        0.499646	        0.065528	        0.535097	        0.060712	        0.693861	        0.128333	        0.359445	        0.158270	        0.181972	        0.083664	        0.154607	        0.130857	        0.517909	        0.141191
        1.693040	        0.831191	       -0.401471	       -0.749180	        0.114867	        0.491295	        0.159425	        0.500508	        0.065526	        0.535764	        0.060710	        0.693336	        0.128350	        0.359630	        0.158238	        0.182117	        0.083666	        0.154330	        0.130898	        0.518432	        0.141148
        1.695744	        0.829155	       -0.401159	       -0.756687	        0.115327	        0.491462	        0.159365	        0.502106	        0.065522	        0.537001	        0.060707	        0.692359	        0.128382	        0.359971	        0.158180	        0.182386	        0.083668	        0.153814	        0.130975	        0.519401	        0.141067
        1.698731	        0.826883	       -0.400814	       -0.765144	        0.116015	        0.491644	        0.159298	        0.503875	        0.065518	        0.538370	        0.060703	        0.691272	        0.128417	        0.360348	        0.158114	        0.182683	        0.083671	        0.153242	        0.131061	        0.520474	        0.140977
        1.699827	        0.826042	       -0.400687	       -0.767957	        0.115634	        0.491711	        0.159273	        0.504525	        0.065516	        0.538872	        0.060702	        0.690871	        0.128430	        0.360487	        0.158090	        0.182792	        0.083672	        0.153031	        0.131093	        0.520867	        0.140943
        1.700923	        0.825199	       -0.400560	       -0.770885	        0.115465	        0.491777	        0.159248	        0.505175	        0.065514	        0.539375	        0.060700	        0.690470	        0.128444	        0.360625	        0.158066	        0.182901	        0.083673	        0.152820	        0.131125	        0.521261	        0.140910
        1.703678	        0.823065	       -0.400243	       -0.778702	        0.115883	        0.491942	        0.159184	        0.506812	        0.065510	        0.540640	        0.060697	        0.689455	        0.128477	        0.360972	        0.158004	        0.183176	        0.083676	        0.152288	        0.131206	        0.522252	        0.140825
        1.706996	        0.820465	       -0.399856	       -0.787882	        0.115722	        0.492138	        0.159107	        0.508787	        0.065505	        0.542166	        0.060693	        0.688225	        0.128518	        0.361391	        0.157930	        0.183507	        0.083680	        0.151645	        0.131304	        0.523446	        0.140722
        1.709744	        0.818288	       -0.399537	       -0.795967	        0.116409	        0.492299	        0.159042	        0.510426	        0.065501	        0.543431	        0.060690	        0.687199	        0.128552	        0.361737	        0.157867	        0.183781	        0.083682	        0.151109	        0.131387	        0.524437	        0.140636
        1.712633	        0.815976	       -0.399198	       -0.804733	        0.117519	        0.492466	        0.158973	        0.512152	        0.065497	        0.544762	        0.060686	        0.686114	        0.128589	        0.362100	        0.157801	        0.184069	        0.083685	        0.150544	        0.131475	        0.525479	        0.140544
        1.713723	        0.815098	       -0.399070	       -0.807775	        0.117352	        0.492528	        0.158947	        0.512804	        0.065495	        0.545265	        0.060685	        0.685703	        0.128602	        0.362237	        0.157776	        0.184178	        0.083686	        0.150330	        0.131508	        0.525873	        0.140510
